<mxfile host="app.diagrams.net" modified="2024-04-26T08:17:07.825Z" agent="Mozilla/5.0 (Linux; Android 10; K) AppleWebKit/537.36 (KHTML, like Gecko) Chrome/116.0.0.0 Mobile Safari/537.36 EdgA/116.0.1938.79" version="24.3.0" etag="wQdxatC4yj54gM8KuJuh" type="github">
  <diagram name="第 1 页" id="Wl2O61CINfuMKIwieDev">
    <mxGraphModel>
      <root>
        <mxCell id="0" />
        <mxCell id="1" parent="0" />
      </root>
    </mxGraphModel>
  </diagram>
</mxfile>
